<svg width="282" height="17" viewBox="0 0 282 17" fill="none" xmlns="http://www.w3.org/2000/svg">
<g clip-path="url(#clip0)">
<path d="M145.108 2.55021H149.879C150.193 2.55021 150.541 2.58722 150.922 2.65928C151.305 2.73183 151.66 2.88038 151.99 3.10395C152.319 3.32752 152.594 3.64437 152.813 4.05548C153.033 4.46659 153.143 5.00455 153.143 5.67032C153.143 6.64801 152.837 7.40262 152.225 7.93317C151.613 8.46322 150.748 8.72825 149.628 8.72825H145.8V13.6907H145.108V2.55021ZM145.8 8.13601H149.738C150.241 8.13601 150.666 8.0605 151.018 7.90997C151.368 7.75944 151.647 7.5645 151.857 7.32464C152.067 7.08528 152.218 6.82025 152.312 6.52907C152.406 6.23838 152.452 5.94719 152.452 5.65551C152.452 5.44724 152.422 5.20097 152.359 4.91423C152.296 4.62847 152.171 4.35259 151.983 4.08707C151.794 3.82155 151.53 3.59847 151.189 3.41636C150.849 3.23424 150.397 3.14294 149.832 3.14294H145.8V8.13601Z" fill="#49662D"/>
<path d="M160.221 12.1941C160.221 12.3081 160.224 12.4222 160.23 12.5371C160.235 12.6512 160.254 12.7543 160.283 12.8481C160.316 12.9409 160.368 13.0169 160.44 13.0741C160.514 13.1309 160.618 13.16 160.755 13.16C160.858 13.16 161.007 13.1442 161.195 13.1131V13.6274C161.111 13.6486 161.03 13.6644 160.952 13.6742C160.872 13.6851 160.792 13.69 160.707 13.69C160.469 13.69 160.277 13.6589 160.135 13.5963C159.995 13.5341 159.887 13.4512 159.814 13.3465C159.74 13.2434 159.691 13.1205 159.665 12.9798C159.639 12.8397 159.626 12.6867 159.626 12.5194V12.0984H159.594C159.5 12.3378 159.365 12.5643 159.186 12.777C159.009 12.9897 158.792 13.1797 158.536 13.346C158.277 13.5129 157.988 13.6427 157.664 13.7364C157.34 13.8302 156.984 13.8766 156.598 13.8766C156.221 13.8766 155.866 13.8376 155.538 13.7596C155.208 13.6821 154.92 13.5548 154.674 13.3781C154.429 13.2014 154.239 12.9695 154.102 12.6832C153.966 12.3975 153.897 12.0416 153.897 11.6142C153.897 11.1469 153.989 10.7644 154.172 10.4678C154.356 10.1711 154.592 9.93672 154.878 9.76596C155.167 9.59372 155.486 9.47181 155.836 9.39926C156.186 9.32573 156.53 9.27391 156.864 9.24331C157.535 9.20185 158.055 9.152 158.426 9.09475C158.797 9.038 159.072 8.94916 159.249 8.83071C159.427 8.71079 159.536 8.55483 159.58 8.36186C159.62 8.16889 159.642 7.90732 159.642 7.57369C159.642 7.48041 159.611 7.34765 159.548 7.1759C159.485 7.00366 159.373 6.82944 159.211 6.65275C159.048 6.47656 158.821 6.32308 158.527 6.19229C158.234 6.06298 157.857 5.99734 157.398 5.99734C156.676 5.99734 156.092 6.17946 155.648 6.5427C155.204 6.90742 154.96 7.43797 154.918 8.13483H154.322C154.363 7.25042 154.649 6.58712 155.176 6.14491C155.705 5.7032 156.446 5.4821 157.398 5.4821C157.754 5.4821 158.1 5.51418 158.434 5.57537C158.769 5.63855 159.069 5.74712 159.336 5.90308C159.602 6.05854 159.818 6.27175 159.98 6.54171C160.141 6.81167 160.222 7.15418 160.222 7.56875V12.1941H160.221ZM159.626 9.13424C159.51 9.26996 159.348 9.37113 159.138 9.43825C158.93 9.50685 158.691 9.55571 158.425 9.58681C158.158 9.61741 157.878 9.64406 157.585 9.66478C157.292 9.68551 157 9.7171 156.707 9.75806C155.994 9.84196 155.448 10.0211 155.068 10.2965C154.685 10.5719 154.493 11.0121 154.493 11.6147C154.493 12.1038 154.669 12.5169 155.019 12.8555C155.37 13.1935 155.902 13.3623 156.613 13.3623C157.292 13.3623 157.832 13.2404 158.229 12.9956C158.627 12.7513 158.931 12.471 159.139 12.1527C159.349 11.8363 159.482 11.5284 159.539 11.2327C159.597 10.9361 159.627 10.7362 159.627 10.6321V9.13424H159.626Z" fill="#49662D"/>
<path d="M161.148 5.67042H161.853L164.851 12.988L167.613 5.67042H168.289L164.836 14.5481C164.668 14.9434 164.515 15.2844 164.373 15.5702C164.231 15.8564 164.071 16.0667 163.894 16.2019C163.685 16.3682 163.432 16.4694 163.14 16.5059C162.848 16.542 162.471 16.5607 162.011 16.5607V16.046C162.44 16.046 162.774 16.0124 163.014 15.9443C163.255 15.8762 163.48 15.7385 163.689 15.5307C163.804 15.4167 163.925 15.206 164.051 14.899C164.176 14.592 164.333 14.173 164.521 13.6429L161.148 5.67042Z" fill="#49662D"/>
<path d="M168.116 2.54991H168.821L171.741 12.9565H171.772L174.739 2.54991H175.601L178.613 12.9565H178.644L181.518 2.54991H182.254L179.038 13.6904H178.254L175.178 3.14264H175.147L172.117 13.6904H171.348L168.116 2.54991Z" fill="#49662D"/>
<path d="M183.558 4.15685V2.54991H184.155V4.15636H183.558V4.15685ZM183.558 13.6904V5.67052H184.155V13.6904H183.558Z" fill="#49662D"/>
<path d="M189.02 6.18526H187.261V11.7864C187.261 12.1091 187.297 12.3638 187.372 12.5508C187.444 12.7384 187.557 12.8785 187.709 12.9713C187.861 13.0656 188.043 13.1253 188.258 13.1515C188.472 13.1771 188.721 13.185 189.004 13.1747V13.6894C188.7 13.7101 188.405 13.7072 188.117 13.6815C187.829 13.6559 187.576 13.5779 187.356 13.4471C187.137 13.3173 186.961 13.1219 186.829 12.8618C186.699 12.6022 186.644 12.2434 186.665 11.7854V6.18526H185.174V5.6705H186.665V3.17372H187.261V5.6705H189.02V6.18526V6.18526Z" fill="#49662D"/>
<path d="M190.715 2.54991V7.38702H190.746C190.851 7.08498 191 6.81699 191.193 6.58306C191.387 6.34912 191.612 6.14924 191.868 5.98292C192.124 5.81611 192.404 5.69174 192.708 5.60833C193.011 5.52542 193.32 5.48347 193.634 5.48347C194.104 5.48347 194.504 5.54072 194.834 5.65522C195.164 5.76972 195.432 5.92074 195.641 6.10828C195.851 6.29483 196.016 6.50607 196.137 6.73951C196.257 6.97394 196.343 7.21083 196.396 7.4497C196.448 7.68906 196.48 7.92053 196.489 8.1441C196.499 8.36767 196.505 8.56311 196.505 8.72844V13.6909H195.908V8.61937C195.908 8.41209 195.894 8.1594 195.861 7.86279C195.83 7.56617 195.74 7.27993 195.586 7.00453C195.435 6.72914 195.205 6.49225 194.896 6.29434C194.587 6.09693 194.161 5.99822 193.617 5.99822C193.168 5.99822 192.761 6.08113 192.401 6.24746C192.04 6.41427 191.734 6.64574 191.483 6.94186C191.231 7.23798 191.04 7.59184 190.91 8.00295C190.779 8.41406 190.714 8.86367 190.714 9.35227V13.6899H190.117V2.54991H190.715Z" fill="#49662D"/>
<path d="M198.483 2.54991H200.053L203.928 12.3174L207.789 2.54991H209.359V13.6904H208.292V4.06357H208.261L204.431 13.6904H203.426L199.581 4.06357H199.55V13.6904H198.483V2.54991H198.483Z" fill="#49662D"/>
<path d="M210.488 5.63903H211.541L214.208 12.5041L216.704 5.63903H217.692L214.177 14.9229C214.03 15.2659 213.896 15.5492 213.775 15.7732C213.657 15.9968 213.517 16.1735 213.36 16.3038C213.203 16.4341 213.023 16.5273 212.819 16.5846C212.615 16.6418 212.355 16.6705 212.043 16.6705C211.843 16.6601 211.689 16.6517 211.579 16.6468C211.468 16.6418 211.371 16.6236 211.288 16.592V15.7653C211.403 15.7861 211.515 15.8043 211.626 15.8201C211.735 15.8354 211.848 15.8433 211.964 15.8433C212.183 15.8433 212.364 15.8117 212.505 15.7495C212.646 15.6874 212.769 15.601 212.875 15.4924C212.979 15.3833 213.067 15.2501 213.141 15.0946C213.213 14.9382 213.293 14.7664 213.377 14.5799L213.72 13.6599L210.488 5.63903Z" fill="#49662D"/>
<path d="M218.854 2.54991H223.593C224.064 2.54991 224.517 2.59433 224.951 2.68218C225.384 2.77101 225.767 2.92154 226.097 3.13524C226.426 3.34844 226.69 3.62927 226.89 3.9777C227.087 4.32613 227.187 4.75995 227.187 5.28063C227.187 5.57181 227.14 5.85559 227.046 6.13098C226.953 6.40637 226.819 6.6561 226.646 6.87967C226.473 7.10373 226.27 7.29325 226.034 7.44921C225.799 7.60467 225.535 7.71473 225.241 7.77691V7.80801C225.965 7.90178 226.539 8.19543 226.968 8.68946C227.397 9.18397 227.611 9.79497 227.611 10.5234C227.611 10.7934 227.572 11.1083 227.494 11.4671C227.416 11.8259 227.241 12.1718 226.968 12.5045C226.696 12.8376 226.293 13.1189 225.76 13.3469C225.226 13.5764 224.505 13.6909 223.594 13.6909H218.855V2.54991H218.854ZM219.921 7.43341H223.593C224.022 7.43341 224.393 7.38406 224.707 7.28535C225.021 7.18665 225.282 7.05142 225.492 6.87967C225.702 6.70792 225.857 6.50804 225.964 6.27904C226.067 6.05054 226.12 5.80574 226.12 5.54615C226.12 4.15241 225.278 3.45505 223.593 3.45505H219.92V7.43341H219.921ZM219.921 12.7848H223.593C223.991 12.7848 224.369 12.7512 224.723 12.6836C225.079 12.6165 225.392 12.4936 225.665 12.3174C225.937 12.1407 226.151 11.9033 226.308 11.6072C226.464 11.3106 226.543 10.939 226.543 10.4918C226.543 9.77375 226.286 9.2358 225.775 8.8765C225.261 8.51771 224.535 8.33806 223.593 8.33806H219.92V12.7848H219.921Z" fill="#49662D"/>
<path d="M229.04 8.10465C229.091 7.15855 229.418 6.47155 230.02 6.04464C230.623 5.61922 231.388 5.40552 232.32 5.40552C232.675 5.40552 233.03 5.43908 233.386 5.50718C233.742 5.5748 234.061 5.70213 234.344 5.88918C234.628 6.07623 234.856 6.33977 235.035 6.67686C235.213 7.01493 235.302 7.45516 235.302 7.99558V12.2711C235.302 12.6654 235.495 12.8633 235.883 12.8633C235.988 12.8633 236.091 12.8426 236.197 12.8011V13.6278C236.081 13.649 235.979 13.6648 235.89 13.6747C235.801 13.6855 235.689 13.6904 235.553 13.6904C235.302 13.6904 235.101 13.6569 234.948 13.5888C234.796 13.5217 234.679 13.4254 234.595 13.3001C234.511 13.1757 234.457 13.0276 234.43 12.8554C234.405 12.6836 234.391 12.4936 234.391 12.2863H234.36C234.182 12.5464 234.002 12.7779 233.818 12.9803C233.635 13.1831 233.43 13.3548 233.206 13.4955C232.982 13.6357 232.722 13.7423 232.429 13.8153C232.137 13.8874 231.796 13.9244 231.409 13.9244C231.032 13.9244 230.68 13.877 230.35 13.7837C230.02 13.6904 229.733 13.5473 229.487 13.3548C229.241 13.1624 229.046 12.9176 228.906 12.621C228.766 12.3253 228.694 11.9739 228.694 11.5688C228.694 11.0066 228.82 10.5679 229.071 10.25C229.322 9.93319 229.654 9.69136 230.067 9.52405C230.48 9.35871 230.946 9.24125 231.464 9.17315C231.983 9.10652 232.508 9.04088 233.041 8.9782C233.24 8.95747 233.422 8.92885 233.584 8.89282C233.746 8.85679 233.879 8.80201 233.984 8.72847C234.088 8.65642 234.169 8.55179 234.226 8.41705C234.285 8.28232 234.313 8.10514 234.313 7.88651C234.313 7.55337 234.259 7.28045 234.149 7.06774C234.038 6.85404 233.888 6.68525 233.693 6.56038C233.499 6.43552 233.275 6.35014 233.019 6.30276C232.762 6.25637 232.487 6.23268 232.195 6.23268C231.578 6.23268 231.068 6.38074 230.664 6.67686C230.262 6.97396 230.049 7.44924 230.028 8.10465H229.04V8.10465ZM234.312 9.29011H234.281C234.218 9.40461 234.098 9.48753 233.921 9.53935C233.742 9.59166 233.586 9.62818 233.45 9.64842C233.03 9.72146 232.599 9.78759 232.154 9.84386C231.71 9.90111 231.305 9.98698 230.939 10.101C230.573 10.216 230.272 10.3793 230.037 10.593C229.8 10.8058 229.684 11.1103 229.684 11.5056C229.684 11.7553 229.733 11.9764 229.833 12.1689C229.931 12.3609 230.064 12.5277 230.233 12.6683C230.401 12.8085 230.594 12.9151 230.813 12.9877C231.033 13.0602 231.258 13.0967 231.488 13.0967C231.865 13.0967 232.225 13.04 232.571 12.9255C232.916 12.8115 233.217 12.6447 233.474 12.426C233.73 12.2074 233.934 11.9424 234.085 11.6304C234.237 11.318 234.312 10.9647 234.312 10.5693V9.29011H234.312Z" fill="#49662D"/>
<path d="M237.262 5.63902H238.251V7.02782H238.282C238.376 6.78895 238.511 6.56735 238.682 6.36451C238.856 6.16216 239.056 5.99041 239.287 5.85025C239.518 5.70959 239.769 5.60052 240.04 5.52205C240.314 5.44407 240.59 5.40508 240.872 5.40508C241.438 5.40508 241.911 5.47812 242.293 5.62322C242.674 5.76882 242.981 5.97462 243.211 6.24014C243.441 6.50517 243.604 6.82991 243.697 7.21487C243.791 7.60032 243.838 8.03166 243.838 8.51039V13.6905H242.849V8.66635C242.849 8.32334 242.818 8.00353 242.755 7.70741C242.693 7.41031 242.582 7.15317 242.427 6.93503C242.27 6.7164 242.056 6.54416 241.79 6.41929C241.523 6.29492 241.191 6.23274 240.794 6.23274C240.396 6.23274 240.043 6.30282 239.734 6.44347C239.425 6.58364 239.162 6.77661 238.942 7.02041C238.722 7.26521 238.555 7.5559 238.44 7.89446C238.324 8.23253 238.261 8.59923 238.251 8.99455V13.691H237.262V5.63902Z" fill="#49662D"/>
<path d="M245.705 2.54991H246.696V9.53932L251.183 5.63893H252.501L249.049 8.61888L252.737 13.6899H251.498L248.296 9.30538L246.696 10.632V13.6899H245.705V2.54991V2.54991Z" fill="#49662D"/>
<path d="M258.398 3.73941C258.398 4.88786 257.468 5.79991 256.289 5.79991C255.108 5.79991 254.167 4.88786 254.167 3.73941C254.167 2.59046 255.108 1.69174 256.302 1.69174C257.468 1.69174 258.398 2.59046 258.398 3.73941ZM254.694 3.73941C254.694 4.65096 255.385 5.37448 256.301 5.37448C257.192 5.38731 257.872 4.65096 257.872 3.75175C257.872 2.84019 257.192 2.10335 256.276 2.10335C255.385 2.10335 254.694 2.84068 254.694 3.73941ZM255.962 4.801H255.485V2.75333C255.673 2.72816 255.937 2.69016 256.276 2.69016C256.664 2.69016 256.842 2.75333 256.98 2.85302C257.104 2.93988 257.193 3.08992 257.193 3.29029C257.193 3.53953 257.004 3.7014 256.768 3.77642V3.80159C256.967 3.86378 257.069 4.02615 257.13 4.30105C257.193 4.61296 257.242 4.72598 257.281 4.801H256.779C256.716 4.72598 256.679 4.55127 256.615 4.30105C256.579 4.08833 256.453 3.98864 256.189 3.98864H255.962V4.801H255.962ZM255.974 3.65205H256.201C256.464 3.65205 256.678 3.5647 256.678 3.35297C256.678 3.16543 256.541 3.03958 256.238 3.03958C256.112 3.03958 256.025 3.05241 255.974 3.06475V3.65205V3.65205Z" fill="#49662D"/>
</g>
<path d="M27.3994 10.7388C27.3994 11.4706 27.1295 12.0503 26.5897 12.4782C26.0539 12.906 25.3401 13.12 24.4485 13.12C23.3769 13.12 22.5552 13.002 21.9834 12.7661V12.1543C22.6151 12.4222 23.4209 12.5562 24.4005 12.5562C25.1202 12.5562 25.69 12.3922 26.1099 12.0643C26.5337 11.7325 26.7456 11.2986 26.7456 10.7628C26.7456 10.4309 26.6757 10.157 26.5357 9.94113C26.3958 9.72121 26.1678 9.52128 25.852 9.34135C25.5361 9.16141 25.0722 8.96748 24.4605 8.75956C23.5648 8.45167 22.945 8.1198 22.6012 7.76393C22.2613 7.40406 22.0913 6.92624 22.0913 6.33045C22.0913 5.6747 22.3472 5.14089 22.8591 4.72904C23.3749 4.3132 24.0366 4.10527 24.8443 4.10527C25.668 4.10527 26.4417 4.26122 27.1655 4.5731L26.9436 5.10091C26.2158 4.79702 25.5201 4.64507 24.8563 4.64507C24.2086 4.64507 23.6928 4.79502 23.3089 5.09491C22.925 5.3948 22.7331 5.80265 22.7331 6.31846C22.7331 6.64234 22.7911 6.90824 22.907 7.11617C23.027 7.32409 23.2209 7.51202 23.4888 7.67996C23.7567 7.8439 24.2166 8.04182 24.8683 8.27374C25.5521 8.50965 26.0659 8.73957 26.4098 8.96349C26.7536 9.1834 27.0035 9.43531 27.1595 9.71921C27.3194 9.9991 27.3994 10.339 27.3994 10.7388ZM31.7358 13.12C30.7881 13.12 30.0484 12.8281 29.5166 12.2443C28.9888 11.6605 28.7249 10.8428 28.7249 9.79118C28.7249 8.75156 28.9808 7.91987 29.4926 7.2961C30.0044 6.66833 30.6942 6.35445 31.5619 6.35445C32.3296 6.35445 32.9354 6.62235 33.3792 7.15815C33.823 7.69395 34.0449 8.42168 34.0449 9.34135V9.82117H29.3487C29.3567 10.7168 29.5646 11.4006 29.9724 11.8724C30.3843 12.3442 30.9721 12.5802 31.7358 12.5802C32.1077 12.5802 32.4335 12.5542 32.7134 12.5022C32.9973 12.4502 33.3552 12.3382 33.787 12.1663V12.7061C33.4192 12.866 33.0793 12.974 32.7674 13.03C32.4555 13.09 32.1117 13.12 31.7358 13.12ZM31.5619 6.88225C30.9341 6.88225 30.4303 7.09017 30.0504 7.50602C29.6706 7.91787 29.4486 8.51365 29.3847 9.29336H33.4152C33.4152 8.53764 33.2512 7.94786 32.9234 7.52402C32.5955 7.09617 32.1416 6.88225 31.5619 6.88225ZM38.4473 13.12C37.5157 13.12 36.7859 12.8261 36.2581 12.2383C35.7303 11.6505 35.4664 10.8308 35.4664 9.77919C35.4664 8.69958 35.7403 7.85989 36.2881 7.26011C36.8359 6.65633 37.5856 6.35445 38.5373 6.35445C39.1011 6.35445 39.6409 6.45241 40.1567 6.64834L39.9948 7.17614C39.431 6.98821 38.9411 6.89425 38.5253 6.89425C37.7256 6.89425 37.1198 7.14216 36.708 7.63797C36.2961 8.12979 36.0902 8.83953 36.0902 9.76719C36.0902 10.6469 36.2961 11.3366 36.708 11.8364C37.1198 12.3322 37.6956 12.5802 38.4353 12.5802C39.0271 12.5802 39.5769 12.4742 40.0847 12.2623V12.8141C39.6689 13.018 39.1231 13.12 38.4473 13.12ZM42.2019 6.4804V10.7028C42.2019 11.3586 42.3399 11.8364 42.6158 12.1363C42.8917 12.4322 43.3195 12.5802 43.8993 12.5802C44.675 12.5802 45.2448 12.3842 45.6087 11.9924C45.9766 11.6005 46.1605 10.9627 46.1605 10.0791V6.4804H46.7483V13H46.2445L46.1365 12.1003H46.1005C45.6767 12.7801 44.9229 13.12 43.8393 13.12C42.3559 13.12 41.6142 12.3262 41.6142 10.7388V6.4804H42.2019ZM51.4985 6.35445C51.7744 6.35445 52.0703 6.38244 52.3862 6.43841L52.2722 7.0082C52.0003 6.94023 51.7184 6.90624 51.4265 6.90624C50.8708 6.90624 50.4149 7.14216 50.059 7.61398C49.7032 8.08581 49.5252 8.68159 49.5252 9.40132V13H48.9315V6.4804H49.4353L49.4953 7.65597H49.5372C49.8051 7.17614 50.091 6.84027 50.3949 6.64834C50.6988 6.45241 51.0667 6.35445 51.4985 6.35445ZM56.3507 13.12C55.4031 13.12 54.6634 12.8281 54.1316 12.2443C53.6037 11.6605 53.3398 10.8428 53.3398 9.79118C53.3398 8.75156 53.5957 7.91987 54.1076 7.2961C54.6194 6.66833 55.3091 6.35445 56.1768 6.35445C56.9445 6.35445 57.5503 6.62235 57.9941 7.15815C58.438 7.69395 58.6599 8.42168 58.6599 9.34135V9.82117H53.9636C53.9716 10.7168 54.1795 11.4006 54.5874 11.8724C54.9992 12.3442 55.587 12.5802 56.3507 12.5802C56.7226 12.5802 57.0485 12.5542 57.3284 12.5022C57.6123 12.4502 57.9701 12.3382 58.402 12.1663V12.7061C58.0341 12.866 57.6942 12.974 57.3824 13.03C57.0705 13.09 56.7266 13.12 56.3507 13.12ZM56.1768 6.88225C55.549 6.88225 55.0452 7.09017 54.6654 7.50602C54.2855 7.91787 54.0636 8.51365 53.9996 9.29336H58.0301C58.0301 8.53764 57.8662 7.94786 57.5383 7.52402C57.2104 7.09617 56.7566 6.88225 56.1768 6.88225ZM66.2531 13.12C65.3214 13.12 64.5917 12.8261 64.0639 12.2383C63.5361 11.6505 63.2722 10.8308 63.2722 9.77919C63.2722 8.69958 63.5461 7.85989 64.0939 7.26011C64.6417 6.65633 65.3914 6.35445 66.3431 6.35445C66.9068 6.35445 67.4466 6.45241 67.9625 6.64834L67.8005 7.17614C67.2367 6.98821 66.7469 6.89425 66.3311 6.89425C65.5314 6.89425 64.9256 7.14216 64.5137 7.63797C64.1019 8.12979 63.896 8.83953 63.896 9.76719C63.896 10.6469 64.1019 11.3366 64.5137 11.8364C64.9256 12.3322 65.5014 12.5802 66.2411 12.5802C66.8329 12.5802 67.3827 12.4742 67.8905 12.2623V12.8141C67.4746 13.018 66.9288 13.12 66.2531 13.12ZM74.8839 9.7312C74.8839 10.7948 74.626 11.6265 74.1102 12.2263C73.5944 12.8221 72.8826 13.12 71.975 13.12C71.4032 13.12 70.8994 12.982 70.4635 12.7061C70.0277 12.4302 69.6938 12.0344 69.4619 11.5185C69.23 11.0027 69.114 10.407 69.114 9.7312C69.114 8.66759 69.3719 7.8399 69.8878 7.24812C70.4036 6.65234 71.1113 6.35445 72.011 6.35445C72.9066 6.35445 73.6084 6.65633 74.1162 7.26011C74.628 7.85989 74.8839 8.68359 74.8839 9.7312ZM69.7378 9.7312C69.7378 10.6269 69.9337 11.3266 70.3256 11.8304C70.7214 12.3302 71.2792 12.5802 71.999 12.5802C72.7187 12.5802 73.2745 12.3302 73.6664 11.8304C74.0622 11.3266 74.2601 10.6269 74.2601 9.7312C74.2601 8.83153 74.0602 8.13379 73.6604 7.63797C73.2645 7.14216 72.7067 6.89425 71.987 6.89425C71.2672 6.89425 70.7114 7.14216 70.3196 7.63797C69.9317 8.12979 69.7378 8.82754 69.7378 9.7312ZM81.2356 13V8.77156C81.2356 8.1158 81.0976 7.63997 80.8217 7.34408C80.5458 7.04419 80.118 6.89425 79.5382 6.89425C78.7585 6.89425 78.1867 7.09217 77.8228 7.48803C77.463 7.87988 77.283 8.51765 77.283 9.40132V13H76.6893V6.4804H77.1931L77.307 7.37407H77.343C77.7669 6.69432 78.5206 6.35445 79.6042 6.35445C81.0836 6.35445 81.8234 7.14815 81.8234 8.73557V13H81.2356ZM88.4809 13V8.77156C88.4809 8.1158 88.343 7.63997 88.0671 7.34408C87.7912 7.04419 87.3633 6.89425 86.7835 6.89425C86.0038 6.89425 85.432 7.09217 85.0682 7.48803C84.7083 7.87988 84.5284 8.51765 84.5284 9.40132V13H83.9346V6.4804H84.4384L84.5524 7.37407H84.5883C85.0122 6.69432 85.7659 6.35445 86.8495 6.35445C88.329 6.35445 89.0687 7.14815 89.0687 8.73557V13H88.4809ZM93.8129 13.12C92.8653 13.12 92.1256 12.8281 91.5938 12.2443C91.066 11.6605 90.8021 10.8428 90.8021 9.79118C90.8021 8.75156 91.058 7.91987 91.5698 7.2961C92.0816 6.66833 92.7713 6.35445 93.639 6.35445C94.4067 6.35445 95.0125 6.62235 95.4563 7.15815C95.9002 7.69395 96.1221 8.42168 96.1221 9.34135V9.82117H91.4258C91.4338 10.7168 91.6417 11.4006 92.0496 11.8724C92.4614 12.3442 93.0492 12.5802 93.8129 12.5802C94.1848 12.5802 94.5107 12.5542 94.7906 12.5022C95.0745 12.4502 95.4324 12.3382 95.8642 12.1663V12.7061C95.4963 12.866 95.1565 12.974 94.8446 13.03C94.5327 13.09 94.1888 13.12 93.8129 13.12ZM93.639 6.88225C93.0112 6.88225 92.5074 7.09017 92.1276 7.50602C91.7477 7.91787 91.5258 8.51365 91.4618 9.29336H95.4923C95.4923 8.53764 95.3284 7.94786 95.0005 7.52402C94.6726 7.09617 94.2188 6.88225 93.639 6.88225ZM100.524 13.12C99.5928 13.12 98.8631 12.8261 98.3353 12.2383C97.8075 11.6505 97.5436 10.8308 97.5436 9.77919C97.5436 8.69958 97.8175 7.85989 98.3653 7.26011C98.9131 6.65633 99.6628 6.35445 100.614 6.35445C101.178 6.35445 101.718 6.45241 102.234 6.64834L102.072 7.17614C101.508 6.98821 101.018 6.89425 100.602 6.89425C99.8027 6.89425 99.197 7.14216 98.7851 7.63797C98.3733 8.12979 98.1673 8.83953 98.1673 9.76719C98.1673 10.6469 98.3733 11.3366 98.7851 11.8364C99.197 12.3322 99.7728 12.5802 100.512 12.5802C101.104 12.5802 101.654 12.4742 102.162 12.2623V12.8141C101.746 13.018 101.2 13.12 100.524 13.12ZM105.485 12.5922C105.861 12.5922 106.188 12.5602 106.468 12.4962V12.976C106.18 13.072 105.849 13.12 105.473 13.12C104.897 13.12 104.471 12.966 104.195 12.6581C103.923 12.3502 103.787 11.8664 103.787 11.2067V6.99621H102.822V6.64834L103.787 6.37844L104.087 4.90298H104.393V6.4804H106.306V6.99621H104.393V11.1227C104.393 11.6225 104.481 11.9924 104.657 12.2323C104.833 12.4722 105.109 12.5922 105.485 12.5922ZM108.472 13H107.878V6.4804H108.472V13ZM107.794 4.66907C107.794 4.28521 107.92 4.09328 108.172 4.09328C108.296 4.09328 108.392 4.14326 108.46 4.24322C108.532 4.34319 108.568 4.48513 108.568 4.66907C108.568 4.849 108.532 4.99095 108.46 5.09491C108.392 5.19887 108.296 5.25085 108.172 5.25085C107.92 5.25085 107.794 5.05692 107.794 4.66907ZM116.053 9.7312C116.053 10.7948 115.795 11.6265 115.279 12.2263C114.763 12.8221 114.052 13.12 113.144 13.12C112.572 13.12 112.068 12.982 111.632 12.7061C111.197 12.4302 110.863 12.0344 110.631 11.5185C110.399 11.0027 110.283 10.407 110.283 9.7312C110.283 8.66759 110.541 7.8399 111.057 7.24812C111.572 6.65234 112.28 6.35445 113.18 6.35445C114.075 6.35445 114.777 6.65633 115.285 7.26011C115.797 7.85989 116.053 8.68359 116.053 9.7312ZM110.907 9.7312C110.907 10.6269 111.103 11.3266 111.494 11.8304C111.89 12.3302 112.448 12.5802 113.168 12.5802C113.888 12.5802 114.443 12.3302 114.835 11.8304C115.231 11.3266 115.429 10.6269 115.429 9.7312C115.429 8.83153 115.229 8.13379 114.829 7.63797C114.433 7.14216 113.876 6.89425 113.156 6.89425C112.436 6.89425 111.88 7.14216 111.488 7.63797C111.101 8.12979 110.907 8.82754 110.907 9.7312ZM122.404 13V8.77156C122.404 8.1158 122.266 7.63997 121.991 7.34408C121.715 7.04419 121.287 6.89425 120.707 6.89425C119.927 6.89425 119.356 7.09217 118.992 7.48803C118.632 7.87988 118.452 8.51765 118.452 9.40132V13H117.858V6.4804H118.362L118.476 7.37407H118.512C118.936 6.69432 119.689 6.35445 120.773 6.35445C122.252 6.35445 122.992 7.14815 122.992 8.73557V13H122.404ZM131.047 6.35445C131.959 6.35445 132.645 6.64234 133.104 7.21813C133.568 7.78992 133.8 8.62761 133.8 9.7312C133.8 10.8148 133.556 11.6505 133.069 12.2383C132.585 12.8261 131.903 13.12 131.023 13.12C130.559 13.12 130.142 13.024 129.77 12.8321C129.398 12.6401 129.104 12.3682 128.888 12.0164H128.834L128.666 13H128.294V3.66743H128.888V6.01257C128.888 6.36444 128.88 6.68832 128.864 6.98421L128.846 7.49403H128.888C129.136 7.10217 129.434 6.81428 129.782 6.63034C130.134 6.44641 130.555 6.35445 131.047 6.35445ZM131.035 6.89425C130.268 6.89425 129.718 7.11417 129.386 7.554C129.054 7.99384 128.888 8.71958 128.888 9.7312V9.83317C128.888 10.8168 129.06 11.5225 129.404 11.9504C129.752 12.3782 130.292 12.5922 131.023 12.5922C131.735 12.5922 132.271 12.3442 132.631 11.8484C132.991 11.3486 133.17 10.6389 133.17 9.71921C133.17 7.8359 132.459 6.89425 131.035 6.89425ZM134.52 6.4804H135.132L136.511 10.1391C136.931 11.2626 137.197 12.0204 137.309 12.4122H137.345C137.513 11.8964 137.787 11.1267 138.167 10.1031L139.546 6.4804H140.158L137.237 14.0556C137.001 14.6714 136.803 15.0872 136.643 15.3032C136.483 15.5191 136.295 15.681 136.079 15.789C135.867 15.8969 135.61 15.9509 135.306 15.9509C135.078 15.9509 134.824 15.9089 134.544 15.825V15.3092C134.776 15.3731 135.026 15.4051 135.294 15.4051C135.498 15.4051 135.678 15.3571 135.833 15.2612C135.989 15.1652 136.129 15.0153 136.253 14.8113C136.381 14.6114 136.527 14.2915 136.691 13.8517C136.859 13.4158 136.967 13.132 137.015 13L134.52 6.4804Z" fill="#343434"/>
<path d="M281.754 9.9249C281.958 9.72074 281.958 9.39157 281.754 9.1874L278.292 5.7249C278.129 5.5624 277.867 5.5624 277.704 5.7249L274.242 9.1874C274.037 9.39157 274.037 9.72074 274.242 9.9249C274.446 10.1291 274.775 10.1291 274.979 9.9249L278 6.90824L281.021 9.92907C281.221 10.1291 281.554 10.1291 281.754 9.9249Z" fill="#575757"/>
<g clip-path="url(#clip1)">
<path d="M9.7536 8.41955H9.64114V7.89319C9.64114 6.91964 8.86856 6.10639 7.90294 6.08903C7.87656 6.08855 7.82384 6.08855 7.79747 6.08903C6.83182 6.10639 6.05926 6.91964 6.05926 7.89319V8.41955H5.94679C5.77347 8.41955 5.6321 8.59839 5.6321 8.81927V11.4593C5.6321 11.6799 5.77347 11.8604 5.9468 11.8604H9.7536C9.92692 11.8604 10.0683 11.6799 10.0683 11.4593V8.81927C10.0683 8.5984 9.92693 8.41955 9.7536 8.41955ZM8.20684 10.1366V10.9343C8.20684 11.0256 8.13037 11.103 8.03896 11.103H7.66146C7.57004 11.103 7.49356 11.0256 7.49356 10.9343V10.1366C7.4049 10.0493 7.35328 9.92864 7.35328 9.79514C7.35328 9.54216 7.54884 9.32477 7.79748 9.31473C7.82383 9.31366 7.87661 9.31366 7.90296 9.31473C8.1516 9.32477 8.34715 9.54216 8.34715 9.79514C8.34713 9.92864 8.29551 10.0493 8.20684 10.1366ZM8.89988 8.41955H7.90294H7.79747H6.80053V7.89319C6.80053 7.31326 7.27182 6.83376 7.8502 6.83376C8.42858 6.83376 8.89989 7.31326 8.89989 7.89319V8.41955H8.89988Z" fill="#49662D"/>
<rect x="6.61343" y="8.56241" width="2.47361" height="3.29815" fill="#49662D"/>
</g>
<circle cx="7.8502" cy="8.97473" r="7.45518" stroke="#49662D" stroke-width="0.48098"/>
<defs>
<clipPath id="clip0">
<rect width="116.693" height="15.793" fill="white" transform="translate(143.275 0.877375)"/>
</clipPath>
<clipPath id="clip1">
<rect width="5.77176" height="5.77176" fill="white" transform="matrix(1 0 0 -1 4.96432 11.8605)"/>
</clipPath>
</defs>
</svg>
