<svg width="140" height="24" viewBox="0 0 140 24" fill="none" xmlns="http://www.w3.org/2000/svg">
<path d="M0.821022 17.8844C1.1368 20.8211 3.4104 23.4105 8.8102 23.4105C14.4626 23.4105 16.6099 20.8527 16.6099 17.8844C16.6099 15.295 15.4731 13.4635 10.1996 12.2636C7.51551 11.6636 6.97869 11.3794 6.97869 10.7478C6.97869 10.1794 7.3892 9.70575 8.49442 9.70575C10.1365 9.70575 10.5154 10.5584 10.6417 11.1583H16.1362C15.9784 8.82158 14.0521 6.04273 8.65231 6.04273C2.99989 6.04273 1.29469 8.88473 1.29469 11.2846C1.29469 13.6214 2.11571 15.5161 7.83129 16.8108C10.0102 17.2844 10.7364 17.5686 10.7364 18.3896C10.7364 19.1475 10.1996 19.5264 8.99967 19.5264C7.64182 19.5264 6.75764 18.958 6.50502 17.8844H0.821022ZM19.1292 0.137688V23H25.2869V14.0319C25.2869 12.0109 25.5395 10.5584 27.4026 10.5584C28.7604 10.5584 29.2973 11.3794 29.2973 13.0214V23H35.4234V12.2951C35.4234 8.19002 33.3708 6.04273 29.9604 6.04273C27.4973 6.04273 26.1079 7.17953 25.2869 8.19002V0.137688H19.1292ZM47.138 6.04273C41.2014 6.04273 38.1699 9.76891 38.1699 14.7582C38.1699 19.558 41.075 23.4105 46.9485 23.4105C52.6325 23.4105 55.8219 19.8738 55.8219 14.695C55.8219 9.67418 52.6009 6.04273 47.138 6.04273ZM47.0117 10.211C48.6853 10.211 49.5379 11.3794 49.5379 14.7898C49.5379 17.8528 48.6537 19.2738 47.0432 19.2738C45.3696 19.2738 44.4539 17.8844 44.4539 14.7266C44.4539 11.3162 45.4644 10.211 47.0117 10.211ZM74.9249 15.9266C74.9881 15.4845 74.9881 15.074 74.9881 14.5056C74.9881 10.4005 73.0303 6.04273 66.62 6.04273C60.5886 6.04273 57.9677 9.86364 57.9677 14.8529C57.9677 19.1791 60.2413 23.4105 66.4937 23.4105C72.3671 23.4105 74.2302 20.0001 74.8302 17.7897H68.7989C68.4831 18.6738 68.0726 19.2738 66.62 19.2738C64.7885 19.2738 64.1569 17.6002 64.1569 15.9266H74.9249ZM64.2201 12.7372C64.3148 11.0952 64.9464 9.86364 66.5884 9.86364C68.3568 9.86364 68.7989 11.1899 68.8304 12.7372H64.2201ZM76.7434 17.8844C77.0592 20.8211 79.3328 23.4105 84.7326 23.4105C90.385 23.4105 92.5323 20.8527 92.5323 17.8844C92.5323 15.295 91.3955 13.4635 86.122 12.2636C83.4379 11.6636 82.901 11.3794 82.901 10.7478C82.901 10.1794 83.3116 9.70575 84.4168 9.70575C86.0588 9.70575 86.4378 10.5584 86.5641 11.1583H92.0586C91.9007 8.82158 89.9745 6.04273 84.5747 6.04273C78.9222 6.04273 77.217 8.88473 77.217 11.2846C77.217 13.6214 78.0381 15.5161 83.7536 16.8108C85.9325 17.2844 86.6588 17.5686 86.6588 18.3896C86.6588 19.1475 86.122 19.5264 84.922 19.5264C83.5642 19.5264 82.68 18.958 82.4274 17.8844H76.7434Z" fill="white"/>
<path d="M100.86 23V16.4002H94.702V23H100.86ZM112.236 6.04273C106.3 6.04273 103.268 9.76891 103.268 14.7582C103.268 19.558 106.173 23.4105 112.047 23.4105C117.731 23.4105 120.92 19.8738 120.92 14.695C120.92 9.67418 117.699 6.04273 112.236 6.04273ZM112.11 10.211C113.784 10.211 114.636 11.3794 114.636 14.7898C114.636 17.8528 113.752 19.2738 112.142 19.2738C110.468 19.2738 109.552 17.8844 109.552 14.7266C109.552 11.3162 110.563 10.211 112.11 10.211ZM123.701 23H129.858V13.5582C129.858 11.2215 130.648 10.5584 131.942 10.5584C133.363 10.5584 133.837 11.4425 133.837 13.053V23H139.963V12.3267C139.963 8.28475 137.879 6.04273 134.563 6.04273C131.848 6.04273 130.49 7.33742 129.858 8.28475C129.827 7.77951 129.763 6.86375 129.669 6.45324H123.669C123.701 7.74793 123.701 9.29524 123.701 10.7478V23Z" fill="#ACD685"/>
</svg>
